<svg width="44" height="25" viewBox="0 0 44 25" fill="none" xmlns="http://www.w3.org/2000/svg">
<path d="M17.7279 7H10.752C8.94779 7 7.47998 8.33088 7.47998 9.96678V11.6747H21V9.96678C21 8.331 19.5321 7 17.7279 7Z" fill="#515151"/>
<path d="M32.2479 7H25.272C23.4678 7 22 8.33088 22 9.96678V11.6747H35.52V9.96678C35.52 8.331 34.0521 7 32.2479 7Z" fill="#515151"/>
<path d="M39.5622 12.6159H31.9137H12.0863H4.43781C1.99074 12.6158 0 13.747 0 15.1374V20.1779H44V15.1374C44 13.747 42.0093 12.6159 39.5622 12.6159Z" fill="#515151"/>
<path d="M2.70416 21.869V23.9141C2.70416 24.381 3.37043 24.7596 4.19234 24.7596C5.01424 24.7596 5.68051 24.3811 5.68051 23.9141V21.869H2.70416Z" fill="#515151"/>
<path d="M38.3195 21.869V23.9141C38.3195 24.381 38.9857 24.7596 39.8076 24.7596C40.6295 24.7596 41.2958 24.3811 41.2958 23.9141V21.869H38.3195Z" fill="#515151"/>
<path d="M35.6697 1.25H7.32189C4.49764 1.25 2.20001 2.55552 2.20001 4.16021V12.0518C2.75663 11.9757 3.33654 11.9343 3.93363 11.9343H5.50001V10.3846C5.50001 8.17444 4.91014 3.75 8.80001 3.75H34.1C37.9899 3.75 37.9959 8.17444 37.9959 10.3846V11.9343H39.0581C39.6552 11.9343 40.2353 11.9757 40.7918 12.0518V4.16021C40.7916 2.55552 38.4939 1.25 35.6697 1.25Z" fill="#515151"/>
</svg>
