<svg width="25" height="25" viewBox="0 0 25 25" fill="none" xmlns="http://www.w3.org/2000/svg">
<path d="M16.5672 6.875H8.18272C6.01419 6.875 4.25 8.20588 4.25 9.84178V11.5497H20.5V9.84178C20.5 8.206 18.7357 6.875 16.5672 6.875Z" fill="#515151"/>
<path d="M22.4785 12.6158H18.1328H6.86724H2.52148C1.1311 12.6158 0 13.7469 0 15.1373V20.1779H25V15.1373C25 13.7469 23.8689 12.6158 22.4785 12.6158Z" fill="#515151"/>
<path d="M1.53644 21.869V23.914C1.53644 24.381 1.915 24.7596 2.38199 24.7596C2.84898 24.7596 3.22755 24.381 3.22755 23.914V21.869H1.53644Z" fill="#515151"/>
<path d="M21.7725 21.869V23.914C21.7725 24.381 22.151 24.7596 22.618 24.7596C23.085 24.7596 23.4636 24.381 23.4636 23.914V21.869H21.7725Z" fill="#515151"/>
<path d="M20.2668 1.25H4.16016C2.55547 1.25 1.25 2.55552 1.25 4.16021V12.0518C1.56626 11.9757 1.89575 11.9343 2.23501 11.9343H3.125V10.3846C3.125 8.17444 2.78984 3.75 5 3.75H19.375C21.5852 3.75 21.5886 8.17444 21.5886 10.3846V11.9343H22.1921C22.5314 11.9343 22.8609 11.9757 23.1772 12.0518V4.16021C23.1771 2.55552 21.8715 1.25 20.2668 1.25Z" fill="#515151"/>
</svg>
