<svg id="Line" height="512" viewBox="0 0 64 64" width="512" xmlns="http://www.w3.org/2000/svg"><path d="m52 53v8h-40v-8a8 8 0 0 1 7-7.94h.04l.96-.06h24a8.262 8.262 0 0 1 1 .06 8 8 0 0 1 7 7.94z" fill="#5bcbfa"/><path d="m45 45.06v15.94h-26v-15.94h.04l.96-.06h24a8.262 8.262 0 0 1 1 .06z" fill="#ec455a"/><path d="m23 45 2 8 5-4-1-4z" fill="#fff"/><path d="m41 45-2 8-5-4 1-4z" fill="#fff"/><path d="m38 45-6 6-6-6 1-12h10z" fill="#ffcbbe"/><path d="m16 18.51v4.49h32v-4.49a1.454 1.454 0 0 1 -.32-.63 2.474 2.474 0 0 1 .32-1.4c.38-.85.91-1.74.65-2.38-.43-1.03-2.74-1.06-3.36-1.98s.24-3.08-.55-3.86-2.93.07-3.86-.55-.95-2.93-1.98-3.36-2.67 1.19-3.78.97c-1.07-.21-1.98-2.34-3.12-2.34s-2.05 2.13-3.12 2.34c-1.11.22-2.76-1.39-3.78-.97s-1.06 2.74-1.98 3.36-3.08-.24-3.86.55.07 2.93-.55 3.86-2.93.95-3.36 1.98c-.26.64.27 1.53.65 2.38a2.474 2.474 0 0 1 .32 1.4 1.454 1.454 0 0 1 -.32.63z" fill="#3e3d42"/><path d="m17 19h2a0 0 0 0 1 0 0v7a0 0 0 0 1 0 0h-2a2 2 0 0 1 -2-2v-3a2 2 0 0 1 2-2z" fill="#ffcbbe"/><path d="m47 19h2a0 0 0 0 1 0 0v7a0 0 0 0 1 0 0h-2a2 2 0 0 1 -2-2v-3a2 2 0 0 1 2-2z" fill="#ffcbbe" transform="matrix(-1 0 0 -1 94 45)"/><path d="m32 41a13 13 0 0 1 -13-13v-9a6 6 0 0 1 2.4-4.8 6 6 0 0 1 3.6-1.2h14a6 6 0 0 1 3.6 1.2 6 6 0 0 1 2.4 4.8v9a13 13 0 0 1 -13 13z" fill="#ffddce"/><path d="m45.12 44.07a8.317 8.317 0 0 0 -1.12-.07h-5.08l-.31-3.67a13.986 13.986 0 0 0 7.39-12.33v-1h1a3.009 3.009 0 0 0 3-3v-3a2.986 2.986 0 0 0 -1-2.22v-.27a1.026 1.026 0 0 0 -.22-.63.5.5 0 0 1 -.12-.19 1.832 1.832 0 0 1 .25-.8l.19-.4a3.479 3.479 0 0 0 .47-2.78 3.488 3.488 0 0 0 -2.32-1.63 3.751 3.751 0 0 1 -1.13-.52 3.693 3.693 0 0 1 -.05-1.25 3.416 3.416 0 0 0 -.62-2.75 3.415 3.415 0 0 0 -2.76-.63 3.821 3.821 0 0 1 -1.26-.05 3.771 3.771 0 0 1 -.51-1.13 3.469 3.469 0 0 0 -1.64-2.32 3.433 3.433 0 0 0 -2.76.47 3.756 3.756 0 0 1 -1.21.44 4.02 4.02 0 0 1 -.88-.83 3.5 3.5 0 0 0 -2.43-1.53 3.5 3.5 0 0 0 -2.43 1.53 4.02 4.02 0 0 1 -.88.83 3.676 3.676 0 0 1 -1.21-.44 3.456 3.456 0 0 0 -2.77-.47 3.488 3.488 0 0 0 -1.63 2.32 3.751 3.751 0 0 1 -.52 1.13 3.693 3.693 0 0 1 -1.25.05 3.416 3.416 0 0 0 -2.75.62 3.415 3.415 0 0 0 -.63 2.76 3.8 3.8 0 0 1 -.05 1.26 3.771 3.771 0 0 1 -1.13.51 3.511 3.511 0 0 0 -2.33 1.64 3.507 3.507 0 0 0 .48 2.77l.19.41a1.766 1.766 0 0 1 .25.8.671.671 0 0 1 -.12.18 1.026 1.026 0 0 0 -.22.63v.27a2.986 2.986 0 0 0 -1 2.22v3a3.009 3.009 0 0 0 3 3h1v1a13.986 13.986 0 0 0 7.39 12.33l-.31 3.67h-5.08a8.317 8.317 0 0 0 -1.12.07 9 9 0 0 0 -7.88 8.93v8a1 1 0 0 0 1 1h40a1 1 0 0 0 1-1v-8a9 9 0 0 0 -7.88-8.93zm-27.12 15.93h-5v-7a7.018 7.018 0 0 1 5-6.71zm21.72-14-1.31 5.25-2.91-2.33 2.91-2.92zm-7.72 3.59-4.96-4.97.28-3.44a13.765 13.765 0 0 0 9.36 0l.28 3.44zm16-25.59a1 1 0 0 1 -1 1h-1v-5h1a1 1 0 0 1 1 1zm-30 1h-1a1 1 0 0 1 -1-1v-3a1 1 0 0 1 1-1h1zm-.69-7a3.4 3.4 0 0 0 -.4-1.93c-.06-.14-.13-.29-.2-.44a5.179 5.179 0 0 1 -.45-1.13 3.878 3.878 0 0 1 1.15-.53 3.906 3.906 0 0 0 2.13-1.3 4.015 4.015 0 0 0 .39-2.47 3.871 3.871 0 0 1 .03-1.22 3.45 3.45 0 0 1 1.25-.05 4.026 4.026 0 0 0 2.47-.39 4.024 4.024 0 0 0 1.29-2.13 4.806 4.806 0 0 1 .49-1.13 3.824 3.824 0 0 1 1.16.43 4.03 4.03 0 0 0 2.45.59 3.89 3.89 0 0 0 1.99-1.45 4.174 4.174 0 0 1 .93-.87c.2.04.69.58.95.87a3.89 3.89 0 0 0 1.99 1.45 4.1 4.1 0 0 0 2.45-.59 4.556 4.556 0 0 1 1.12-.44 3.688 3.688 0 0 1 .53 1.14 3.906 3.906 0 0 0 1.3 2.13 4.026 4.026 0 0 0 2.47.39 4.2 4.2 0 0 1 1.22.03 3.45 3.45 0 0 1 .05 1.25 4.026 4.026 0 0 0 .39 2.47 4.024 4.024 0 0 0 2.13 1.29 4.806 4.806 0 0 1 1.13.49 3.866 3.866 0 0 1 -.43 1.17c-.07.15-.14.3-.2.43a3.49 3.49 0 0 0 -.4 1.94h-.77a6.985 6.985 0 0 0 -6.92-6h-14a6.985 6.985 0 0 0 -6.92 6zm2.69 10v-9a5 5 0 0 1 5-5h14a5 5 0 0 1 5 5v9a12 12 0 0 1 -24 0zm5.59 18 2.91 2.92-2.91 2.33-1.31-5.25zm18.41 14h-24v-14h2.22l1.81 7.24a1.01 1.01 0 0 0 .65.71 1.185 1.185 0 0 0 .32.05 1 1 0 0 0 .62-.22l4.31-3.44 1.36 1.37a1.014 1.014 0 0 0 1.42 0l1.36-1.37 4.31 3.44a1 1 0 0 0 .62.22 1.127 1.127 0 0 0 .32-.05 1.01 1.01 0 0 0 .65-.71l1.81-7.24h2.22zm7 0h-5v-13.71a7.005 7.005 0 0 1 5 6.71z"/><path d="m27 21a1 1 0 0 0 -1 1v2a1 1 0 0 0 2 0v-2a1 1 0 0 0 -1-1z"/><path d="m37 25a1 1 0 0 0 1-1v-2a1 1 0 0 0 -2 0v2a1 1 0 0 0 1 1z"/></svg>