<svg id="Layer_1" enable-background="new 0 0 512.649 512.649" fill="#fff" height="512" viewBox="0 0 512.649 512.649" width="512" xmlns="http://www.w3.org/2000/svg"><g><path d="m72.32 0c-28.67 0-51.994 23.325-51.994 51.995v408.66c0 28.67 23.325 51.995 51.995 51.995h8.009v-512.65z"/><path d="m256.311 201.405c16.649-15.421 42.314-43.74 42.314-65.184 0-23.326-18.977-42.303-42.303-42.303s-42.302 18.977-42.302 42.303c0 21.524 25.644 49.795 42.291 65.184zm-18.302-65.321c0-10.098 8.215-18.313 18.313-18.313s18.314 8.215 18.314 18.313-8.216 18.313-18.314 18.313-18.313-8.214-18.313-18.313z"/><path d="m110.33 0v512.649h301.99v-512.649zm145.992 63.918c39.868 0 72.303 32.435 72.303 72.303 0 45.358-56.519 91.641-62.963 96.769l-9.34 7.432-9.34-7.432c-6.444-5.128-62.962-51.411-62.962-96.769 0-39.867 32.435-72.303 72.302-72.303zm54.333 388.406v-21.668c0-11.579-9.42-21-21-21h-78.667c-28.121 0-50.999-22.878-50.999-50.999s22.878-51 50.999-51h9.335c11.579 0 20.999-9.42 20.999-21v-17.334h30v17.334c0 28.121-22.878 51-50.999 51h-9.335c-11.579 0-20.999 9.42-20.999 21s9.42 20.999 20.999 20.999h78.667c28.121 0 51 22.878 51 51v21.668z"/><path d="m442.32 144.327h50.003v84.325h-50.003z"/><path d="m442.32 30.002h50.003v84.325h-50.003z"/></g></svg>